# xmcd
#
# Track frame offsets: 
#        150
#        13771
#        28289
#        45851
#        68882
#        88825
#        111928
#        128596
#        141646
#        163064
#        180771
#        199786
#        220552
#        241177
#
# Disc length: 3420 seconds
#
# Revision: 1
# Processed by: cddbd v1.4PL0 Copyright (c) Steve Scherf et al.
# Submitted via: ExactAudioCopy v0.95a2
#
DISCID=bd0d5a0e
DTITLE=Drislak - Nju disko
DYEAR=2003
DGENRE=Folk
TTITLE0=Dr. Islak
TTITLE1=Za rana
TTITLE2=Blsak
TTITLE3=Pokladna
TTITLE4=Svabliky
TTITLE5=Zlodejicek
TTITLE6=Domasa
TTITLE7=Dzube
TTITLE8=Inzerat
TTITLE9=Repa
TTITLE10=Dezi
TTITLE11=Rambo
TTITLE12=Cigan
TTITLE13=Vychodnare anglicanmi (bonus feat. D-Night)
EXTD=
EXTT0=
EXTT1=
EXTT2=
EXTT3=
EXTT4=
EXTT5=
EXTT6=
EXTT7=
EXTT8=
EXTT9=
EXTT10=
EXTT11=
EXTT12=
EXTT13=
PLAYORDER=
